# xmcd
#
# Track frame offsets:
#	150
#	14374
#	29219
#	42707
#	53254
#	68174
#	80312
#	93739
#	114507
#	127683
#	140497
#	159745
#	175460
#	187204
#	205368
#	218744
#	236389
#	245815
#	259158
#	271680
#	282437
#	295298
#	311280
#
# Disc length: 4346 seconds
#
# Revision: 0
# Processed by: cddbd v1.5.1PL2 Copyright (c) Steve Scherf et al.
# Submitted via: EasyCDDAExtractor 8.1.2.3
#
DISCID=5c10f817
DTITLE=Cappadonna - The struggle
DYEAR=2003
DGENRE=Rap
TTITLE0=Roll Of Your Lifetime Ft Solom
TTITLE1=Blood Brothers Ft Lounge Mode
TTITLE2=Mama
TTITLE3=I Dont Even Know You
TTITLE4=Get Up Ft Lounge Mode
TTITLE5=Clap Ft Twiz And Solomon Child
TTITLE6=Do It
TTITLE7=Struggle With This Ft King Jus
TTITLE8=Get Away From The Door Ft Insp
TTITLE9=My Kind Of Bitch
TTITLE10=I Was Lovin You
TTITLE11=Cant Stop The Pain
TTITLE12=Now You Ft Lounge Mode And Cru
TTITLE13=Life Of A Lesbo
TTITLE14=Season Of Da Vick Ft Lounge Mo
TTITLE15=Im Not The One Ft Sweetleaf
TTITLE16=Trying To Get... Ft Inspectah
TTITLE17=First Time I Saw You
TTITLE18=Pain Is Love Ft Lounge Mode
TTITLE19=C-A-P-P-A-D-E-E
TTITLE20=Dont Give Up On Me
TTITLE21=Cap Is Back Ft Lounge Mode
TTITLE22=We Got This Ft Polite Lounge M
EXTD=
EXTT0=
EXTT1=
EXTT2=
EXTT3=
EXTT4=
EXTT5=
EXTT6=
EXTT7=
EXTT8=
EXTT9=
EXTT10=
EXTT11=
EXTT12=
EXTT13=
EXTT14=
EXTT15=
EXTT16=
EXTT17=
EXTT18=
EXTT19=
EXTT20=
EXTT21=
EXTT22=
PLAYORDER=
